<?xml version="1.0" encoding="utf-8"?>
<!-- Generator: Adobe Illustrator 14.0.0, SVG Export Plug-In . SVG Version: 6.00 Build 43363)  -->
<!DOCTYPE svg PUBLIC "-//W3C//DTD SVG 1.1//EN" "http://www.w3.org/Graphics/SVG/1.1/DTD/svg11.dtd">
<svg version="1.1" xmlns="http://www.w3.org/2000/svg" xmlns:xlink="http://www.w3.org/1999/xlink" x="0px" y="0px" width="600px"
	 height="600px" viewBox="0 0 600 600" enable-background="new 0 0 600 600" xml:space="preserve">
<g id="Sayumi">
	<g>
		<path fill="#EC6EA7" d="M369.979,299.5c0,38.658-31.343,70-70,70c-38.658,0-70-31.342-70-70s31.343-70,70-70
			C338.636,229.5,369.979,260.842,369.979,299.5z"/>
		<path fill="#FFFFFF" d="M299.974,353.889c27.618,0,50.005-22.387,50.005-50h-100C249.978,331.502,272.361,353.889,299.974,353.889
			z"/>
		<circle fill="#FFFFFF" cx="277.468" cy="277.223" r="10"/>
		<g>
			<path fill="#F1F1F2" d="M314.488,277.34v-0.235c0-1.294,0.695-2.156,1.754-2.705l13.336-6.902
				c0.297-0.118,0.629-0.274,0.992-0.274c0.992,0,1.918,1.059,1.918,2.353s-0.629,1.961-1.455,2.354l-11.58,5.333l11.646,5.411
				c0.693,0.354,1.389,0.981,1.389,2.236c0,1.294-0.826,2.313-1.918,2.313c-0.363,0-0.762-0.157-0.959-0.274l-13.369-6.902
				C315.217,279.497,314.488,278.634,314.488,277.34z"/>
		</g>
	</g>
</g>
<g id="Ai">
	<g>
		<path fill="#FDD800" d="M369.979,460.5c0,38.658-31.343,70-70,70c-38.658,0-70-31.342-70-70s31.343-70,70-70
			C338.636,390.5,369.979,421.842,369.979,460.5z"/>
		<path fill="#FFFFFF" d="M299.974,514.889c27.618,0,50.005-22.387,50.005-50h-100C249.978,492.502,272.361,514.889,299.974,514.889
			z"/>
		<circle fill="#FFFFFF" cx="277.468" cy="438.223" r="10"/>
		<circle fill="#FFFFFF" cx="320.469" cy="438.223" r="10"/>
	</g>
</g>
<g id="Gaki">
	<g>
		<circle fill="#92C61D" cx="140.083" cy="299.5" r="70"/>
		<circle fill="#FFFFFF" cx="117.574" cy="277.223" r="10"/>
		<g>
			<path fill="#F1F1F2" d="M154.593,277.34v-0.235c0-1.294,0.695-2.156,1.754-2.705l13.336-6.902
				c0.297-0.118,0.629-0.274,0.992-0.274c0.992,0,1.918,1.059,1.918,2.353s-0.629,1.961-1.455,2.354l-11.58,5.333l11.646,5.411
				c0.693,0.354,1.389,0.981,1.389,2.236c0,1.294-0.826,2.313-1.918,2.313c-0.363,0-0.762-0.157-0.959-0.274l-13.369-6.902
				C155.322,279.497,154.593,278.634,154.593,277.34z"/>
		</g>
		<path fill="#FFFFFF" d="M177.592,310.855c0-0.083-0.02-0.16-0.024-0.242c0-0.09,0.007-0.178,0.007-0.268h-0.034
			c-0.252-1.967-1.914-3.49-3.948-3.49c-2.035,0-3.696,1.523-3.949,3.49h-0.069c0,16.29-13.209,29.5-29.5,29.5
			s-29.5-13.21-29.5-29.5h-0.051c-0.253-1.967-1.915-3.49-3.949-3.49c-2.036,0-3.696,1.523-3.949,3.49h-0.051
			c0,0.137,0.009,0.271,0.01,0.407c-0.001,0.034-0.01,0.067-0.01,0.103c0,0.059,0.015,0.112,0.017,0.17
			c0.364,20.395,17.001,36.82,37.483,36.82c20.403,0,36.99-16.3,37.477-36.586C177.565,311.125,177.592,310.994,177.592,310.855z"/>
	</g>
</g>
<g id="Linlin">
	<g>
		<circle fill="#A0D7DE" cx="140.083" cy="139.5" r="70"/>
		<g>
			<circle fill="#FFFFFF" cx="115.583" cy="117.223" r="10"/>
			<circle fill="#FFFFFF" cx="164.583" cy="117.223" r="10"/>
		</g>
		<path fill="#FFFFFF" d="M177.592,150.855c0-0.083-0.02-0.16-0.024-0.242c0-0.09,0.007-0.178,0.007-0.268h-0.034
			c-0.252-1.967-1.914-3.491-3.948-3.491c-2.035,0-3.696,1.524-3.949,3.491h-0.069c0,16.29-13.209,29.5-29.5,29.5
			s-29.5-13.21-29.5-29.5h-0.051c-0.253-1.966-1.915-3.491-3.949-3.491c-2.036,0-3.696,1.524-3.949,3.491h-0.051
			c0,0.137,0.009,0.271,0.01,0.407c-0.001,0.035-0.01,0.067-0.01,0.102c0,0.059,0.015,0.113,0.017,0.17
			c0.364,20.395,17.001,36.82,37.483,36.82c20.403,0,36.99-16.3,37.477-36.586C177.565,151.125,177.592,150.994,177.592,150.855z"/>
	</g>
</g>
<g id="Kamei">
	<g>
		<circle fill="#F09600" cx="459.917" cy="299.5" r="70"/>
		<path fill="#FFFFFF" d="M497.426,310.855c0-0.083-0.02-0.16-0.025-0.242c0.001-0.09,0.008-0.178,0.008-0.268h-0.034
			c-0.253-1.967-1.913-3.49-3.948-3.49s-3.696,1.523-3.949,3.49h-0.068c0,16.29-13.209,29.5-29.5,29.5s-29.5-13.21-29.5-29.5h-0.052
			c-0.253-1.967-1.915-3.49-3.948-3.49c-2.036,0-3.697,1.523-3.949,3.49h-0.051c0,0.137,0.008,0.271,0.01,0.407
			c-0.001,0.034-0.01,0.067-0.01,0.103c0,0.059,0.014,0.112,0.017,0.17c0.364,20.395,17.001,36.82,37.483,36.82
			c20.402,0,36.99-16.3,37.477-36.586C497.398,311.125,497.426,310.994,497.426,310.855z"/>
		<path fill="#FFFFFF" d="M433.417,266.471c-9.389,0-17,7.611-17,17c0,1.933,1.567,3.5,3.5,3.5s3.5-1.567,3.5-3.5
			c0-5.522,4.478-10,10-10s10,4.478,10,10c0,1.933,1.567,3.5,3.5,3.5s3.5-1.567,3.5-3.5
			C450.417,274.082,442.806,266.471,433.417,266.471z"/>
		<path fill="#FFFFFF" d="M486.417,266.471c-9.389,0-17,7.611-17,17c0,1.933,1.567,3.5,3.5,3.5s3.5-1.567,3.5-3.5
			c0-5.522,4.478-10,10-10s10,4.478,10,10c0,1.933,1.567,3.5,3.5,3.5s3.5-1.567,3.5-3.5
			C503.417,274.082,495.806,266.471,486.417,266.471z"/>
	</g>
</g>
<g id="Aika">
	<g>
		<circle fill="#B564A1" cx="299.978" cy="139.5" r="70"/>
		<g>
			<path fill="#FFFFFF" d="M273.478,106.471c-9.389,0-17,7.611-17,17c0,1.933,1.567,3.5,3.5,3.5s3.5-1.567,3.5-3.5
				c0-5.522,4.478-10,10-10s10,4.478,10,10c0,1.933,1.567,3.5,3.5,3.5s3.5-1.567,3.5-3.5
				C290.478,114.082,282.867,106.471,273.478,106.471z"/>
			<path fill="#FFFFFF" d="M326.479,106.471c-9.389,0-17,7.611-17,17c0,1.933,1.567,3.5,3.5,3.5s3.5-1.567,3.5-3.5
				c0-5.522,4.478-10,10-10s10,4.478,10,10c0,1.933,1.567,3.5,3.5,3.5s3.5-1.567,3.5-3.5
				C343.479,114.082,335.867,106.471,326.479,106.471z"/>
		</g>
		<path fill="#F1F1F2" d="M325.916,158.889c0-1.933-1.567-3.5-3.5-3.5c-0.957,0-1.822,0.386-2.454,1.007l-0.06-0.06l-17.694,17.698
			c-1.255,1.248-3.276,1.248-4.533,0l-17.694-17.698l-0.027,0.027c-0.628-0.601-1.476-0.974-2.413-0.974c-1.933,0-3.5,1.567-3.5,3.5
			c0,0.938,0.374,1.785,0.975,2.413l-0.074,0.074l22.172,22.171c1.562,1.562,4.095,1.562,5.656,0l22.172-22.171l-0.033-0.034
			C325.53,160.711,325.916,159.846,325.916,158.889z"/>
	</g>
</g>
<g id="Koharu">
	<g>
		<circle fill="#E70417" cx="459.917" cy="459.5" r="70"/>
		<path fill="#F1F1F2" d="M485.854,478.889c0-1.933-1.567-3.5-3.5-3.5c-0.957,0-1.822,0.387-2.454,1.008l-0.06-0.06l-17.694,17.698
			c-1.255,1.248-3.276,1.248-4.533,0l-17.694-17.699l-0.026,0.027c-0.628-0.601-1.476-0.975-2.413-0.975c-1.934,0-3.5,1.567-3.5,3.5
			c0,0.938,0.374,1.785,0.975,2.414l-0.074,0.074l22.172,22.171c1.562,1.562,4.095,1.562,5.656,0l22.172-22.171l-0.033-0.034
			C485.469,480.711,485.854,479.846,485.854,478.889z"/>
		<g>
			<circle fill="#FFFFFF" cx="435.417" cy="438.223" r="10"/>
			<circle fill="#FFFFFF" cx="484.417" cy="438.223" r="10"/>
		</g>
	</g>
</g>
<g id="Reina">
	<g>
		<circle fill="#25A4DF" cx="140.083" cy="459.5" r="70"/>
		<path fill="#FFFFFF" d="M113.583,426.471c-9.389,0-17,7.611-17,17c0,1.934,1.567,3.5,3.5,3.5s3.5-1.566,3.5-3.5
			c0-5.522,4.478-10,10-10s10,4.478,10,10c0,1.934,1.567,3.5,3.5,3.5s3.5-1.566,3.5-3.5
			C130.583,434.082,122.972,426.471,113.583,426.471z"/>
		<path fill="#FFFFFF" d="M166.583,426.471c-9.389,0-17,7.611-17,17c0,1.934,1.567,3.5,3.5,3.5s3.5-1.566,3.5-3.5
			c0-5.522,4.478-10,10-10s10,4.478,10,10c0,1.934,1.567,3.5,3.5,3.5s3.5-1.566,3.5-3.5
			C183.583,434.082,175.972,426.471,166.583,426.471z"/>
		<path fill="#FFFFFF" d="M140.604,514.889c27.618,0,50.005-22.387,50.005-50h-100C90.609,492.502,112.992,514.889,140.604,514.889z
			"/>
	</g>
</g>
<g id="Junjun">
	<g>
		<circle fill="#0440A0" cx="459.917" cy="139.5" r="70"/>
		<path fill="#FFFFFF" d="M459.912,193.889c27.618,0,50.005-22.388,50.005-50h-100C409.917,171.501,432.3,193.889,459.912,193.889z"
			/>
		<g>
			<path fill="#F1F1F2" d="M474.917,120.34v-0.235c0-1.294,0.695-2.156,1.754-2.705l13.336-6.902
				c0.297-0.118,0.629-0.274,0.992-0.274c0.992,0,1.918,1.059,1.918,2.353s-0.629,1.961-1.455,2.354l-11.58,5.333l11.646,5.411
				c0.693,0.354,1.389,0.981,1.389,2.236c0,1.294-0.826,2.313-1.918,2.313c-0.363,0-0.762-0.157-0.959-0.274l-13.369-6.902
				C475.646,122.497,474.917,121.634,474.917,120.34z"/>
		</g>
		<g>
			<path fill="#F1F1F2" d="M444.917,120.105v0.235c0,1.294-0.695,2.156-1.754,2.705l-13.336,6.902
				c-0.297,0.118-0.629,0.274-0.992,0.274c-0.992,0-1.918-1.059-1.918-2.353s0.629-1.961,1.455-2.354l11.58-5.333l-11.646-5.411
				c-0.693-0.354-1.389-0.981-1.389-2.236c0-1.294,0.826-2.313,1.918-2.313c0.363,0,0.762,0.157,0.959,0.274l13.369,6.902
				C444.188,117.948,444.917,118.812,444.917,120.105z"/>
		</g>
	</g>
</g>
</svg>
